<?xml version="1.0" encoding="UTF-8" standalone="no"?>
<!--?xml version="1.0" encoding="UTF-8" standalone="no"?-->

<svg
   id="svg132060"
   viewBox="0 0 700 170"
   height="170"
   width="700"
   version="1.1"
   sodipodi:docname="logo-color.svg"
   inkscape:version="1.2 (dc2aeda, 2022-05-15)"
   xmlns:inkscape="http://www.inkscape.org/namespaces/inkscape"
   xmlns:sodipodi="http://sodipodi.sourceforge.net/DTD/sodipodi-0.dtd"
   xmlns:xlink="http://www.w3.org/1999/xlink"
   xmlns="http://www.w3.org/2000/svg"
   xmlns:svg="http://www.w3.org/2000/svg"
   xmlns:rdf="http://www.w3.org/1999/02/22-rdf-syntax-ns#"
   xmlns:cc="http://creativecommons.org/ns#"
   xmlns:dc="http://purl.org/dc/elements/1.1/">
  <sodipodi:namedview
     id="namedview436"
     pagecolor="#ffffff"
     bordercolor="#000000"
     borderopacity="0.25"
     inkscape:showpageshadow="2"
     inkscape:pageopacity="0.0"
     inkscape:pagecheckerboard="0"
     inkscape:deskcolor="#d1d1d1"
     showgrid="false"
     inkscape:zoom="1.0807292"
     inkscape:cx="300.26023"
     inkscape:cy="120.7518"
     inkscape:window-width="1920"
     inkscape:window-height="999"
     inkscape:window-x="0"
     inkscape:window-y="25"
     inkscape:window-maximized="0"
     inkscape:current-layer="logo-center" />
  <metadata
     id="metadata132066">
    <rdf:rdf>
      <cc:work
         rdf:about="">
        <dc:format>image/svg+xml</dc:format>
        <dc:type
           rdf:resource="http://purl.org/dc/dcmitype/StillImage" />
      </cc:work>
    </rdf:rdf>
  </metadata>
  <defs
     id="defs132064" />
  <linearGradient
     spreadMethod="pad"
     y2="0.30000001"
     x2="-0.1"
     y1="1.2"
     x1="0.30000001"
     id="3d_gradient2-logo-d13772dc-cba6-4ef5-b5d5-30ed4b128925">
    <stop
       id="stop132041"
       stop-opacity="1"
       stop-color="#ffffff"
       offset="0%" />
    <stop
       id="stop132043"
       stop-opacity="1"
       stop-color="#000000"
       offset="100%" />
  </linearGradient>
  <linearGradient
     gradientTransform="rotate(-30)"
     spreadMethod="pad"
     y2="0.30000001"
     x2="-0.1"
     y1="1.2"
     x1="0.30000001"
     id="3d_gradient3-logo-d13772dc-cba6-4ef5-b5d5-30ed4b128925">
    <stop
       id="stop132046"
       stop-opacity="1"
       stop-color="#ffffff"
       offset="0%" />
    <stop
       id="stop132048"
       stop-opacity="1"
       stop-color="#cccccc"
       offset="50%" />
    <stop
       id="stop132050"
       stop-opacity="1"
       stop-color="#000000"
       offset="100%" />
  </linearGradient>
  <g
     id="logo-group"
     transform="translate(-191.65496,-300)">
    <image
       xlink:href=""
       id="container"
       style="display:none"
       x="272"
       y="144"
       width="480"
       height="480" />
    <g
       id="logo-center"
       transform="translate(226.65496)">
      <image
         xlink:href=""
         id="icon_container"
         style="display:none"
         x="0"
         y="0" />
      <g
         id="slogan"
         style="font-style:normal;font-weight:300;font-size:32px;line-height:1;font-family:'Open Sans';font-variant-ligatures:none;text-align:center;text-anchor:middle">
        <path
           id="path132068"
           style="font-style:normal;font-weight:300;font-size:32px;line-height:1;font-family:'Open Sans';font-variant-ligatures:none;text-align:center;text-anchor:middle"
           d="m 261.92187,-11.640625 q 0,5.75 -3.01562,8.703125 Q 255.89062,0 250.04687,0 h -5.46875 V -22.84375 H 250.75 q 5.46875,0 8.3125,2.859375 2.85937,2.859375 2.85937,8.34375 z m -1.73437,0.0625 q 0,-4.90625 -2.5,-7.375 -2.48438,-2.484375 -7.3125,-2.484375 h -4.20313 v 20.03125 h 3.78125 q 10.23438,0 10.23438,-10.171875 z"
           stroke-width="1.7"
           stroke-linejoin="miter"
           stroke-miterlimit="2"
           fill="#e362f5"
           stroke="#e362f5"
           transform="matrix(0.927,0,0,0.927,-86.723917,437.53337)" />
        <path
           id="path132070"
           style="font-style:normal;font-weight:300;font-size:32px;line-height:1;font-family:'Open Sans';font-variant-ligatures:none;text-align:center;text-anchor:middle"
           d="m 273.67187,0.3125 q -3.70312,0 -5.78125,-2.28125 -2.0625,-2.28125 -2.0625,-6.390625 0,-4.0625 2,-6.5 2,-2.453125 5.39063,-2.453125 3,0 4.73437,2.09375 1.73438,2.09375 1.73438,5.6875 v 1.25 h -12.23438 q 0.0312,3.5 1.625,5.34375 1.60938,1.84375 4.59375,1.84375 1.45313,0 2.54688,-0.203125 1.10937,-0.203125 2.79687,-0.875 v 1.40625 q -1.4375,0.625 -2.65625,0.84375 -1.21875,0.234375 -2.6875,0.234375 z m -0.45312,-16.25 q -2.45313,0 -3.9375,1.625 -1.48438,1.609375 -1.73438,4.65625 h 10.5 q 0,-2.953125 -1.28125,-4.609375 -1.28125,-1.671875 -3.54687,-1.671875 z"
           stroke-width="1.7"
           stroke-linejoin="miter"
           stroke-miterlimit="2"
           fill="#e362f5"
           stroke="#e362f5"
           transform="matrix(0.927,0,0,0.927,-86.723917,437.53337)" />
        <path
           id="path132072"
           style="font-style:normal;font-weight:300;font-size:32px;line-height:1;font-family:'Open Sans';font-variant-ligatures:none;text-align:center;text-anchor:middle"
           d="m 294.6875,0 -0.39063,-2.6875 h -0.125 q -1.28125,1.640625 -2.64062,2.328125 -1.34375,0.671875 -3.1875,0.671875 -2.5,0 -3.89063,-1.28125 Q 283.0625,-2.25 283.0625,-4.515625 283.0625,-7 285.125,-8.375 q 2.07812,-1.375 6,-1.453125 l 3.23437,-0.09375 v -1.125 q 0,-2.421875 -0.98437,-3.65625 -0.98438,-1.234375 -3.17188,-1.234375 -2.35937,0 -4.89062,1.3125 l -0.57813,-1.34375 q 2.79688,-1.3125 5.53125,-1.3125 2.79688,0 4.17188,1.453125 1.39062,1.453125 1.39062,4.53125 V 0 Z m -6.25,-1.09375 q 2.71875,0 4.28125,-1.546875 1.57812,-1.5625 1.57812,-4.328125 v -1.671875 l -2.96875,0.125 q -3.57812,0.171875 -5.10937,1.125 -1.51563,0.9375 -1.51563,2.9375 0,1.59375 0.96875,2.484375 0.98438,0.875 2.76563,0.875 z"
           stroke-width="1.7"
           stroke-linejoin="miter"
           stroke-miterlimit="2"
           fill="#e362f5"
           stroke="#e362f5"
           transform="matrix(0.927,0,0,0.927,-86.723917,437.53337)" />
        <path
           id="path132074"
           style="font-style:normal;font-weight:300;font-size:32px;line-height:1;font-family:'Open Sans';font-variant-ligatures:none;text-align:center;text-anchor:middle"
           d="m 307.53125,-17.3125 q 1.84375,0 3.1875,0.671875 1.34375,0.671875 2.40625,2.296875 h 0.0937 q -0.0937,-1.96875 -0.0937,-3.859375 V -24.3125 h 1.53125 V 0 h -1.01563 L 313.25,-2.59375 h -0.125 q -1.9375,2.90625 -5.5625,2.90625 -3.51563,0 -5.375,-2.1875 -1.85938,-2.1875 -1.85938,-6.375 0,-4.40625 1.84375,-6.734375 1.84375,-2.328125 5.35938,-2.328125 z m 0,1.40625 q -2.78125,0 -4.1875,1.953125 -1.39063,1.953125 -1.39063,5.671875 0,7.21875 5.60938,7.21875 2.875,0 4.21875,-1.671875 Q 313.125,-4.40625 313.125,-8.25 v -0.265625 q 0,-3.9375 -1.32813,-5.65625 -1.3125,-1.734375 -4.26562,-1.734375 z"
           stroke-width="1.7"
           stroke-linejoin="miter"
           stroke-miterlimit="2"
           fill="#e362f5"
           stroke="#e362f5"
           transform="matrix(0.927,0,0,0.927,-86.723917,437.53337)" />
        <path
           id="path132076"
           style="font-style:normal;font-weight:300;font-size:32px;line-height:1;font-family:'Open Sans';font-variant-ligatures:none;text-align:center;text-anchor:middle"
           d="m 341.6875,-5.890625 q 0,2.859375 -2.10938,4.53125 Q 337.48437,0.3125 334,0.3125 q -4.1875,0 -6.42188,-0.921875 v -1.59375 q 2.46875,1.046875 6.29688,1.046875 2.8125,0 4.45312,-1.28125 1.65625,-1.296875 1.65625,-3.390625 0,-1.296875 -0.54687,-2.140625 -0.54688,-0.859375 -1.78125,-1.5625 -1.23438,-0.703125 -3.625,-1.515625 -3.5,-1.203125 -4.84375,-2.59375 -1.32813,-1.40625 -1.32813,-3.734375 0,-2.5625 2,-4.171875 2.01563,-1.625 5.17188,-1.625 3.21875,0 6.04687,1.21875 l -0.57812,1.375 q -2.84375,-1.1875 -5.4375,-1.1875 -2.53125,0 -4.03125,1.171875 -1.5,1.171875 -1.5,3.1875 0,1.265625 0.45312,2.078125 0.46875,0.8125 1.51563,1.46875 1.04687,0.640625 3.59375,1.546875 2.67187,0.921875 4.01562,1.796875 1.34375,0.859375 1.95313,1.96875 0.625,1.09375 0.625,2.65625 z"
           stroke-width="1.7"
           stroke-linejoin="miter"
           stroke-miterlimit="2"
           fill="#e362f5"
           stroke="#e362f5"
           transform="matrix(0.927,0,0,0.927,-86.723917,437.53337)" />
        <path
           id="path132078"
           style="font-style:normal;font-weight:300;font-size:32px;line-height:1;font-family:'Open Sans';font-variant-ligatures:none;text-align:center;text-anchor:middle"
           d="M 347.67187,0 H 346.125 v -16.984375 h 1.54687 z m -1.76562,-21.703125 q 0,-1.5 0.98437,-1.5 0.48438,0 0.75,0.390625 0.28125,0.390625 0.28125,1.109375 0,0.703125 -0.28125,1.109375 -0.26562,0.40625 -0.75,0.40625 -0.98437,0 -0.98437,-1.515625 z"
           stroke-width="1.7"
           stroke-linejoin="miter"
           stroke-miterlimit="2"
           fill="#e362f5"
           stroke="#e362f5"
           transform="matrix(0.927,0,0,0.927,-86.723917,437.53337)" />
        <path
           id="path132080"
           style="font-style:normal;font-weight:300;font-size:32px;line-height:1;font-family:'Open Sans';font-variant-ligatures:none;text-align:center;text-anchor:middle"
           d="m 374.59375,0 v -11.140625 q 0,-2.484375 -0.96875,-3.625 -0.96875,-1.140625 -2.96875,-1.140625 -2.60938,0 -3.85938,1.4375 -1.25,1.4375 -1.25,4.515625 V 0 h -1.57812 v -11.609375 q 0,-4.296875 -3.9375,-4.296875 -2.67188,0 -3.89063,1.5625 -1.21875,1.546875 -1.21875,4.96875 V 0 H 353.375 v -16.984375 h 1.28125 l 0.32812,2.328125 h 0.0937 q 0.70313,-1.265625 2,-1.953125 1.29688,-0.703125 2.85938,-0.703125 4.01562,0 5.15625,3.015625 h 0.0625 q 0.82812,-1.453125 2.21875,-2.234375 1.40625,-0.78125 3.1875,-0.78125 2.78125,0 4.17187,1.484375 1.39063,1.484375 1.39063,4.71875 V 0 Z"
           stroke-width="1.7"
           stroke-linejoin="miter"
           stroke-miterlimit="2"
           fill="#e362f5"
           stroke="#e362f5"
           transform="matrix(0.927,0,0,0.927,-86.723917,437.53337)" />
        <path
           id="path132082"
           style="font-style:normal;font-weight:300;font-size:32px;line-height:1;font-family:'Open Sans';font-variant-ligatures:none;text-align:center;text-anchor:middle"
           d="m 388.89062,0.3125 q -3.92187,0 -5.71875,-2.9375 h -0.10937 l 0.0469,1.3125 q 0.0625,1.15625 0.0625,2.53125 V 7.6875 h -1.5469 v -24.671875 h 1.3125 l 0.29687,2.421875 h 0.0937 q 1.75,-2.75 5.59375,-2.75 3.4375,0 5.23438,2.265625 1.8125,2.25 1.8125,6.5625 0,4.1875 -1.90625,6.5 -1.89063,2.296875 -5.17188,2.296875 z m -0.0312,-1.375 q 2.60938,0 4.03125,-1.9375 1.4375,-1.9375 1.4375,-5.421875 0,-7.484375 -5.40625,-7.484375 -2.96875,0 -4.35937,1.640625 -1.39063,1.625 -1.39063,5.3125 v 0.5 q 0,3.984375 1.32813,5.6875 1.34375,1.703125 4.35937,1.703125 z"
           stroke-width="1.7"
           stroke-linejoin="miter"
           stroke-miterlimit="2"
           fill="#e362f5"
           stroke="#e362f5"
           transform="matrix(0.927,0,0,0.927,-86.723917,437.53337)" />
        <path
           id="path132084"
           style="font-style:normal;font-weight:300;font-size:32px;line-height:1;font-family:'Open Sans';font-variant-ligatures:none;text-align:center;text-anchor:middle"
           d="m 402.23437,0 h -1.54687 v -24.3125 h 1.54687 z"
           stroke-width="1.7"
           stroke-linejoin="miter"
           stroke-miterlimit="2"
           fill="#e362f5"
           stroke="#e362f5"
           transform="matrix(0.927,0,0,0.927,-86.723917,437.53337)" />
        <path
           id="path132086"
           style="font-style:normal;font-weight:300;font-size:32px;line-height:1;font-family:'Open Sans';font-variant-ligatures:none;text-align:center;text-anchor:middle"
           d="m 414.79687,0.3125 q -3.70312,0 -5.78125,-2.28125 -2.0625,-2.28125 -2.0625,-6.390625 0,-4.0625 2,-6.5 2,-2.453125 5.39063,-2.453125 3,0 4.73437,2.09375 1.73438,2.09375 1.73438,5.6875 v 1.25 h -12.23438 q 0.0312,3.5 1.625,5.34375 1.60938,1.84375 4.59375,1.84375 1.45313,0 2.54688,-0.203125 1.10937,-0.203125 2.79687,-0.875 v 1.40625 q -1.4375,0.625 -2.65625,0.84375 -1.21875,0.234375 -2.6875,0.234375 z m -0.45312,-16.25 q -2.45313,0 -3.9375,1.625 -1.48438,1.609375 -1.73438,4.65625 h 10.5 q 0,-2.953125 -1.28125,-4.609375 -1.28125,-1.671875 -3.54687,-1.671875 z"
           stroke-width="1.7"
           stroke-linejoin="miter"
           stroke-miterlimit="2"
           fill="#e362f5"
           stroke="#e362f5"
           transform="matrix(0.927,0,0,0.927,-86.723917,437.53337)" />
        <path
           id="path132088"
           style="font-style:normal;font-weight:300;font-size:32px;line-height:1;font-family:'Open Sans';font-variant-ligatures:none;text-align:center;text-anchor:middle"
           d="m 447.95312,-16.28125 q 0,3.3125 -2.25,5.078125 -2.25,1.765625 -6.375,1.765625 h -3.53125 V 0 h -1.59375 v -22.84375 h 5.59375 q 8.15625,0 8.15625,6.5625 z m -12.15625,5.46875 h 3.14063 q 3.85937,0 5.57812,-1.265625 1.71875,-1.28125 1.71875,-4.140625 0,-2.640625 -1.625,-3.90625 -1.625,-1.28125 -5.03125,-1.28125 h -3.78125 z"
           stroke-width="1.7"
           stroke-linejoin="miter"
           stroke-miterlimit="2"
           fill="#e362f5"
           stroke="#e362f5"
           transform="matrix(0.927,0,0,0.927,-86.723917,437.53337)" />
        <path
           id="path132090"
           style="font-style:normal;font-weight:300;font-size:32px;line-height:1;font-family:'Open Sans';font-variant-ligatures:none;text-align:center;text-anchor:middle"
           d="m 466.60937,-8.515625 q 0,4.15625 -2.01562,6.5 -2.01563,2.328125 -5.5625,2.328125 -2.23438,0 -3.9375,-1.078125 -1.70313,-1.078125 -2.60938,-3.09375 -0.90625,-2.015625 -0.90625,-4.65625 0,-4.15625 2.01563,-6.46875 2.01562,-2.328125 5.53125,-2.328125 3.5,0 5.48437,2.359375 2,2.34375 2,6.4375 z m -13.40625,0 q 0,3.5 1.53125,5.46875 1.54688,1.953125 4.35938,1.953125 2.8125,0 4.34375,-1.953125 1.54687,-1.96875 1.54687,-5.46875 0,-3.515625 -1.5625,-5.453125 -1.54687,-1.9375 -4.35937,-1.9375 -2.8125,0 -4.34375,1.9375 -1.51563,1.921875 -1.51563,5.453125 z"
           stroke-width="1.7"
           stroke-linejoin="miter"
           stroke-miterlimit="2"
           fill="#e362f5"
           stroke="#e362f5"
           transform="matrix(0.927,0,0,0.927,-86.723917,437.53337)" />
        <path
           id="path132092"
           style="font-style:normal;font-weight:300;font-size:32px;line-height:1;font-family:'Open Sans';font-variant-ligatures:none;text-align:center;text-anchor:middle"
           d="m 481.84375,-4.421875 q 0,2.28125 -1.73438,3.515625 -1.73437,1.21875 -4.92187,1.21875 -3.40625,0 -5.40625,-1.046875 V -2.40625 q 2.5625,1.28125 5.40625,1.28125 2.51562,0 3.8125,-0.828125 1.3125,-0.84375 1.3125,-2.234375 0,-1.28125 -1.04688,-2.15625 -1.03125,-0.875 -3.40625,-1.71875 -2.54687,-0.921875 -3.57812,-1.578125 -1.03125,-0.671875 -1.5625,-1.5 -0.51563,-0.84375 -0.51563,-2.046875 0,-1.90625 1.59375,-3.015625 1.60938,-1.109375 4.48438,-1.109375 2.75,0 5.21875,1.03125 l -0.57813,1.40625 q -2.5,-1.03125 -4.64062,-1.03125 -2.07813,0 -3.29688,0.6875 -1.21875,0.6875 -1.21875,1.90625 0,1.328125 0.9375,2.125 0.95313,0.796875 3.70313,1.78125 2.29687,0.828125 3.34375,1.5 1.04687,0.65625 1.5625,1.5 0.53125,0.84375 0.53125,1.984375 z"
           stroke-width="1.7"
           stroke-linejoin="miter"
           stroke-miterlimit="2"
           fill="#e362f5"
           stroke="#e362f5"
           transform="matrix(0.927,0,0,0.927,-86.723917,437.53337)" />
        <path
           id="path132094"
           style="font-style:normal;font-weight:300;font-size:32px;line-height:1;font-family:'Open Sans';font-variant-ligatures:none;text-align:center;text-anchor:middle"
           d="m 490.73437,-1.0625 q 1.46875,0 2.5625,-0.25 v 1.25 q -1.125,0.375 -2.59375,0.375 -2.25,0 -3.32812,-1.203125 -1.0625,-1.203125 -1.0625,-3.78125 v -10.96875 h -2.51563 v -0.90625 l 2.51563,-0.703125 0.78125,-3.84375 h 0.79687 v 4.109375 h 4.98438 v 1.34375 h -4.98438 v 10.75 q 0,1.953125 0.6875,2.890625 0.6875,0.9375 2.15625,0.9375 z"
           stroke-width="1.7"
           stroke-linejoin="miter"
           stroke-miterlimit="2"
           fill="#e362f5"
           stroke="#e362f5"
           transform="matrix(0.927,0,0,0.927,-86.723917,437.53337)" />
        <path
           id="path132096"
           style="font-style:normal;font-weight:300;font-size:32px;line-height:1;font-family:'Open Sans';font-variant-ligatures:none;text-align:center;text-anchor:middle"
           d="m 495.59375,-8 v -1.28125 h 7.42187 V -8 Z"
           stroke-width="1.7"
           stroke-linejoin="miter"
           stroke-miterlimit="2"
           fill="#e362f5"
           stroke="#e362f5"
           transform="matrix(0.927,0,0,0.927,-86.723917,437.53337)" />
        <path
           id="path132098"
           style="font-style:normal;font-weight:300;font-size:32px;line-height:1;font-family:'Open Sans';font-variant-ligatures:none;text-align:center;text-anchor:middle"
           d="m 517.75,0 -8.51563,-21.09375 h -0.125 q 0.125,1.9375 0.125,3.96875 V 0 h -1.53125 v -22.84375 h 2.46875 L 518.26562,-2.75 h 0.0937 l 8.09375,-20.09375 h 2.40625 V 0 H 527.25 v -17.3125 q 0,-1.8125 0.1875,-3.75 h -0.125 L 518.76562,0 Z"
           stroke-width="1.7"
           stroke-linejoin="miter"
           stroke-miterlimit="2"
           fill="#e362f5"
           stroke="#e362f5"
           transform="matrix(0.927,0,0,0.927,-86.723917,437.53337)" />
        <path
           id="path132100"
           style="font-style:normal;font-weight:300;font-size:32px;line-height:1;font-family:'Open Sans';font-variant-ligatures:none;text-align:center;text-anchor:middle"
           d="m 548.98437,-8.515625 q 0,4.15625 -2.01562,6.5 -2.01563,2.328125 -5.5625,2.328125 -2.23438,0 -3.9375,-1.078125 -1.70313,-1.078125 -2.60938,-3.09375 -0.90625,-2.015625 -0.90625,-4.65625 0,-4.15625 2.01563,-6.46875 2.01562,-2.328125 5.53125,-2.328125 3.5,0 5.48437,2.359375 2,2.34375 2,6.4375 z m -13.40625,0 q 0,3.5 1.53125,5.46875 1.54688,1.953125 4.35938,1.953125 2.8125,0 4.34375,-1.953125 1.54687,-1.96875 1.54687,-5.46875 0,-3.515625 -1.5625,-5.453125 -1.54687,-1.9375 -4.35937,-1.9375 -2.8125,0 -4.34375,1.9375 -1.51563,1.921875 -1.51563,5.453125 z"
           stroke-width="1.7"
           stroke-linejoin="miter"
           stroke-miterlimit="2"
           fill="#e362f5"
           stroke="#e362f5"
           transform="matrix(0.927,0,0,0.927,-86.723917,437.53337)" />
        <path
           id="path132102"
           style="font-style:normal;font-weight:300;font-size:32px;line-height:1;font-family:'Open Sans';font-variant-ligatures:none;text-align:center;text-anchor:middle"
           d="m 560.375,-17.3125 q 1.07812,0 2.3125,0.21875 l -0.29688,1.484375 q -1.0625,-0.265625 -2.20312,-0.265625 -2.17188,0 -3.5625,1.84375 -1.39063,1.84375 -1.39063,4.65625 V 0 H 553.6875 V -16.984375 H 555 l 0.15625,3.0625 h 0.10937 q 1.04688,-1.875 2.23438,-2.625 1.1875,-0.765625 2.875,-0.765625 z"
           stroke-width="1.7"
           stroke-linejoin="miter"
           stroke-miterlimit="2"
           fill="#e362f5"
           stroke="#e362f5"
           transform="matrix(0.927,0,0,0.927,-86.723917,437.53337)" />
        <path
           id="path132104"
           style="font-style:normal;font-weight:300;font-size:32px;line-height:1;font-family:'Open Sans';font-variant-ligatures:none;text-align:center;text-anchor:middle"
           d="m 570.60937,-1.0625 q 1.46875,0 2.5625,-0.25 v 1.25 q -1.125,0.375 -2.59375,0.375 -2.25,0 -3.32812,-1.203125 -1.0625,-1.203125 -1.0625,-3.78125 v -10.96875 h -2.51563 v -0.90625 l 2.51563,-0.703125 0.78125,-3.84375 h 0.79687 v 4.109375 H 572.75 v 1.34375 h -4.98438 v 10.75 q 0,1.953125 0.6875,2.890625 0.6875,0.9375 2.15625,0.9375 z"
           stroke-width="1.7"
           stroke-linejoin="miter"
           stroke-miterlimit="2"
           fill="#e362f5"
           stroke="#e362f5"
           transform="matrix(0.927,0,0,0.927,-86.723917,437.53337)" />
        <path
           id="path132106"
           style="font-style:normal;font-weight:300;font-size:32px;line-height:1;font-family:'Open Sans';font-variant-ligatures:none;text-align:center;text-anchor:middle"
           d="m 583.73437,0.3125 q -3.70312,0 -5.78125,-2.28125 -2.0625,-2.28125 -2.0625,-6.390625 0,-4.0625 2,-6.5 2,-2.453125 5.39063,-2.453125 3,0 4.73437,2.09375 1.73438,2.09375 1.73438,5.6875 v 1.25 h -12.23438 q 0.0312,3.5 1.625,5.34375 1.60938,1.84375 4.59375,1.84375 1.45313,0 2.54688,-0.203125 1.10937,-0.203125 2.79687,-0.875 v 1.40625 q -1.4375,0.625 -2.65625,0.84375 -1.21875,0.234375 -2.6875,0.234375 z m -0.45312,-16.25 q -2.45313,0 -3.9375,1.625 -1.48438,1.609375 -1.73438,4.65625 h 10.5 q 0,-2.953125 -1.28125,-4.609375 -1.28125,-1.671875 -3.54687,-1.671875 z"
           stroke-width="1.7"
           stroke-linejoin="miter"
           stroke-miterlimit="2"
           fill="#e362f5"
           stroke="#e362f5"
           transform="matrix(0.927,0,0,0.927,-86.723917,437.53337)" />
        <path
           id="path132108"
           style="font-style:normal;font-weight:300;font-size:32px;line-height:1;font-family:'Open Sans';font-variant-ligatures:none;text-align:center;text-anchor:middle"
           d="m 615.65625,0 v -11.140625 q 0,-2.484375 -0.96875,-3.625 -0.96875,-1.140625 -2.96875,-1.140625 -2.60938,0 -3.85938,1.4375 -1.25,1.4375 -1.25,4.515625 V 0 h -1.57812 v -11.609375 q 0,-4.296875 -3.9375,-4.296875 -2.67188,0 -3.89063,1.5625 -1.21875,1.546875 -1.21875,4.96875 V 0 h -1.54687 v -16.984375 h 1.28125 l 0.32812,2.328125 h 0.0937 q 0.70313,-1.265625 2,-1.953125 Q 599.4375,-17.3125 601,-17.3125 q 4.01562,0 5.15625,3.015625 h 0.0625 q 0.82812,-1.453125 2.21875,-2.234375 1.40625,-0.78125 3.1875,-0.78125 2.78125,0 4.17187,1.484375 1.39063,1.484375 1.39063,4.71875 V 0 Z"
           stroke-width="1.7"
           stroke-linejoin="miter"
           stroke-miterlimit="2"
           fill="#e362f5"
           stroke="#e362f5"
           transform="matrix(0.927,0,0,0.927,-86.723917,437.53337)" />
        <path
           id="path132110"
           style="font-style:normal;font-weight:300;font-size:32px;line-height:1;font-family:'Open Sans';font-variant-ligatures:none;text-align:center;text-anchor:middle"
           d="m 648.73437,-11.640625 q 0,5.75 -3.01562,8.703125 Q 642.70312,0 636.85937,0 h -5.46875 v -22.84375 h 6.17188 q 5.46875,0 8.3125,2.859375 2.85937,2.859375 2.85937,8.34375 z M 647,-11.578125 q 0,-4.90625 -2.5,-7.375 -2.48438,-2.484375 -7.3125,-2.484375 h -4.20313 v 20.03125 h 3.78125 Q 647,-1.40625 647,-11.578125 Z"
           stroke-width="1.7"
           stroke-linejoin="miter"
           stroke-miterlimit="2"
           fill="#e362f5"
           stroke="#e362f5"
           transform="matrix(0.927,0,0,0.927,-86.723917,437.53337)" />
        <path
           id="path132112"
           style="font-style:normal;font-weight:300;font-size:32px;line-height:1;font-family:'Open Sans';font-variant-ligatures:none;text-align:center;text-anchor:middle"
           d="m 660.48437,0.3125 q -3.70312,0 -5.78125,-2.28125 -2.0625,-2.28125 -2.0625,-6.390625 0,-4.0625 2,-6.5 2,-2.453125 5.39063,-2.453125 3,0 4.73437,2.09375 1.73438,2.09375 1.73438,5.6875 v 1.25 h -12.23438 q 0.0312,3.5 1.625,5.34375 1.60938,1.84375 4.59375,1.84375 1.45313,0 2.54688,-0.203125 1.10937,-0.203125 2.79687,-0.875 v 1.40625 q -1.4375,0.625 -2.65625,0.84375 -1.21875,0.234375 -2.6875,0.234375 z m -0.45312,-16.25 q -2.45313,0 -3.9375,1.625 -1.48438,1.609375 -1.73438,4.65625 h 10.5 q 0,-2.953125 -1.28125,-4.609375 -1.28125,-1.671875 -3.54687,-1.671875 z"
           stroke-width="1.7"
           stroke-linejoin="miter"
           stroke-miterlimit="2"
           fill="#e362f5"
           stroke="#e362f5"
           transform="matrix(0.927,0,0,0.927,-86.723917,437.53337)" />
        <path
           id="path132114"
           style="font-style:normal;font-weight:300;font-size:32px;line-height:1;font-family:'Open Sans';font-variant-ligatures:none;text-align:center;text-anchor:middle"
           d="m 678.35937,-17.3125 q 3.5625,0 5.35938,2.25 1.8125,2.234375 1.8125,6.546875 0,4.234375 -1.90625,6.53125 -1.89063,2.296875 -5.32813,2.296875 -1.8125,0 -3.26562,-0.75 -1.45313,-0.75 -2.29688,-2.125 h -0.14062 L 672.15625,0 h -0.96875 v -24.3125 h 1.54687 v 6.109375 q 0,1.375 -0.0625,2.53125 l -0.0469,1.328125 h 0.10937 q 0.96875,-1.53125 2.32813,-2.25 1.375,-0.71875 3.29687,-0.71875 z m -0.0312,1.40625 q -3,0 -4.29687,1.71875 -1.29688,1.71875 -1.29688,5.671875 V -8.25 q 0,3.84375 1.34375,5.515625 1.35938,1.671875 4.21875,1.671875 2.78125,0 4.1875,-1.9375 1.40625,-1.953125 1.40625,-5.546875 0,-7.359375 -5.5625,-7.359375 z"
           stroke-width="1.7"
           stroke-linejoin="miter"
           stroke-miterlimit="2"
           fill="#e362f5"
           stroke="#e362f5"
           transform="matrix(0.927,0,0,0.927,-86.723917,437.53337)" />
        <path
           id="path132116"
           style="font-style:normal;font-weight:300;font-size:32px;line-height:1;font-family:'Open Sans';font-variant-ligatures:none;text-align:center;text-anchor:middle"
           d="m 691.59375,-16.984375 v 11 q 0,2.5625 1.07812,3.734375 1.07813,1.15625 3.34375,1.15625 3.03125,0 4.45313,-1.53125 1.4375,-1.53125 1.4375,-4.984375 v -9.375 h 1.53125 V 0 h -1.3125 l -0.28125,-2.34375 H 701.75 q -1.65625,2.65625 -5.89063,2.65625 -5.79687,0 -5.79687,-6.203125 v -11.09375 z"
           stroke-width="1.7"
           stroke-linejoin="miter"
           stroke-miterlimit="2"
           fill="#e362f5"
           stroke="#e362f5"
           transform="matrix(0.927,0,0,0.927,-86.723917,437.53337)" />
        <path
           id="path132118"
           style="font-style:normal;font-weight:300;font-size:32px;line-height:1;font-family:'Open Sans';font-variant-ligatures:none;text-align:center;text-anchor:middle"
           d="m 722.375,-16.984375 v 1.078125 l -3.51563,0.21875 q 1.40625,1.75 1.40625,3.84375 0,2.453125 -1.64062,3.984375 -1.625,1.515625 -4.375,1.515625 -1.15625,0 -1.625,-0.09375 -0.92188,0.484375 -1.40625,1.140625 -0.48438,0.65625 -0.48438,1.390625 0,0.8125 0.60938,1.1875 0.625,0.375 2.07812,0.375 h 2.96875 q 2.76563,0 4.23438,1.125 1.46875,1.109375 1.46875,3.296875 0,2.6875 -2.1875,4.140625 -2.17188,1.46875 -6.20313,1.46875 -3.20312,0 -4.96875,-1.234375 -1.75,-1.234375 -1.75,-3.4375 0,-1.75 1.07813,-2.90625 1.09375,-1.15625 2.95312,-1.578125 Q 710.25,-1.796875 709.78125,-2.390625 709.32812,-3 709.32812,-3.78125 q 0,-1.703125 2.17188,-3 -1.48438,-0.609375 -2.3125,-1.90625 -0.82813,-1.3125 -0.82813,-3 0,-2.546875 1.60938,-4.078125 1.625,-1.546875 4.375,-1.546875 1.67187,0 2.59375,0.328125 z M 708.625,2.875 q 0,3.5 5.20312,3.5 6.6875,0 6.6875,-4.265625 0,-1.53125 -1.04687,-2.21875 -1.04688,-0.6875 -3.39063,-0.6875 h -2.78125 q -4.67187,0 -4.67187,3.671875 z m 1.29687,-14.5625 q 0,1.96875 1.1875,3.0625 1.20313,1.078125 3.20313,1.078125 2.125,0 3.25,-1.078125 1.14062,-1.078125 1.14062,-3.125 0,-2.171875 -1.17187,-3.25 -1.15625,-1.09375 -3.25,-1.09375 -2.03125,0 -3.20313,1.171875 -1.15625,1.15625 -1.15625,3.234375 z"
           stroke-width="1.7"
           stroke-linejoin="miter"
           stroke-miterlimit="2"
           fill="#e362f5"
           stroke="#e362f5"
           transform="matrix(0.927,0,0,0.927,-86.723917,437.53337)" />
        <path
           id="path132120"
           style="font-style:normal;font-weight:300;font-size:32px;line-height:1;font-family:'Open Sans';font-variant-ligatures:none;text-align:center;text-anchor:middle"
           d="m 739.125,-16.984375 v 1.078125 l -3.51563,0.21875 q 1.40625,1.75 1.40625,3.84375 0,2.453125 -1.64062,3.984375 -1.625,1.515625 -4.375,1.515625 -1.15625,0 -1.625,-0.09375 -0.92188,0.484375 -1.40625,1.140625 -0.48438,0.65625 -0.48438,1.390625 0,0.8125 0.60938,1.1875 0.625,0.375 2.07812,0.375 h 2.96875 q 2.76563,0 4.23438,1.125 1.46875,1.109375 1.46875,3.296875 0,2.6875 -2.1875,4.140625 -2.17188,1.46875 -6.20313,1.46875 -3.20312,0 -4.96875,-1.234375 -1.75,-1.234375 -1.75,-3.4375 0,-1.75 1.07813,-2.90625 1.09375,-1.15625 2.95312,-1.578125 Q 727,-1.796875 726.53125,-2.390625 726.07812,-3 726.07812,-3.78125 q 0,-1.703125 2.17188,-3 -1.48438,-0.609375 -2.3125,-1.90625 -0.82813,-1.3125 -0.82813,-3 0,-2.546875 1.60938,-4.078125 1.625,-1.546875 4.375,-1.546875 1.67187,0 2.59375,0.328125 z M 725.375,2.875 q 0,3.5 5.20312,3.5 6.6875,0 6.6875,-4.265625 0,-1.53125 -1.04687,-2.21875 -1.04688,-0.6875 -3.39063,-0.6875 h -2.78125 q -4.67187,0 -4.67187,3.671875 z m 1.29687,-14.5625 q 0,1.96875 1.1875,3.0625 1.20313,1.078125 3.20313,1.078125 2.125,0 3.25,-1.078125 1.14062,-1.078125 1.14062,-3.125 0,-2.171875 -1.17187,-3.25 -1.15625,-1.09375 -3.25,-1.09375 -2.03125,0 -3.20313,1.171875 -1.15625,1.15625 -1.15625,3.234375 z"
           stroke-width="1.7"
           stroke-linejoin="miter"
           stroke-miterlimit="2"
           fill="#e362f5"
           stroke="#e362f5"
           transform="matrix(0.927,0,0,0.927,-86.723917,437.53337)" />
        <path
           id="path132122"
           style="font-style:normal;font-weight:300;font-size:32px;line-height:1;font-family:'Open Sans';font-variant-ligatures:none;text-align:center;text-anchor:middle"
           d="M 744.17187,0 H 742.625 v -16.984375 h 1.54687 z m -1.76562,-21.703125 q 0,-1.5 0.98437,-1.5 0.48438,0 0.75,0.390625 0.28125,0.390625 0.28125,1.109375 0,0.703125 -0.28125,1.109375 -0.26562,0.40625 -0.75,0.40625 -0.98437,0 -0.98437,-1.515625 z"
           stroke-width="1.7"
           stroke-linejoin="miter"
           stroke-miterlimit="2"
           fill="#e362f5"
           stroke="#e362f5"
           transform="matrix(0.927,0,0,0.927,-86.723917,437.53337)" />
        <path
           id="path132124"
           style="font-style:normal;font-weight:300;font-size:32px;line-height:1;font-family:'Open Sans';font-variant-ligatures:none;text-align:center;text-anchor:middle"
           d="m 761.71875,0 v -11.015625 q 0,-2.5625 -1.07813,-3.71875 -1.07812,-1.171875 -3.34375,-1.171875 -3.04687,0 -4.46875,1.546875 -1.40625,1.53125 -1.40625,4.984375 V 0 H 749.875 v -16.984375 h 1.3125 l 0.29687,2.328125 h 0.0937 q 1.65625,-2.65625 5.89063,-2.65625 5.78125,0 5.78125,6.203125 V 0 Z"
           stroke-width="1.7"
           stroke-linejoin="miter"
           stroke-miterlimit="2"
           fill="#e362f5"
           stroke="#e362f5"
           transform="matrix(0.927,0,0,0.927,-86.723917,437.53337)" />
        <path
           id="path132126"
           style="font-style:normal;font-weight:300;font-size:32px;line-height:1;font-family:'Open Sans';font-variant-ligatures:none;text-align:center;text-anchor:middle"
           d="m 782,-16.984375 v 1.078125 l -3.51563,0.21875 q 1.40625,1.75 1.40625,3.84375 0,2.453125 -1.64062,3.984375 -1.625,1.515625 -4.375,1.515625 -1.15625,0 -1.625,-0.09375 -0.92188,0.484375 -1.40625,1.140625 -0.48438,0.65625 -0.48438,1.390625 0,0.8125 0.60938,1.1875 0.625,0.375 2.07812,0.375 h 2.96875 q 2.76563,0 4.23438,1.125 1.46875,1.109375 1.46875,3.296875 0,2.6875 -2.1875,4.140625 -2.17188,1.46875 -6.20313,1.46875 -3.20312,0 -4.96875,-1.234375 -1.75,-1.234375 -1.75,-3.4375 0,-1.75 1.07813,-2.90625 1.09375,-1.15625 2.95312,-1.578125 Q 769.875,-1.796875 769.40625,-2.390625 768.95312,-3 768.95312,-3.78125 q 0,-1.703125 2.17188,-3 -1.48438,-0.609375 -2.3125,-1.90625 -0.82813,-1.3125 -0.82813,-3 0,-2.546875 1.60938,-4.078125 1.625,-1.546875 4.375,-1.546875 1.67187,0 2.59375,0.328125 z M 768.25,2.875 q 0,3.5 5.20312,3.5 6.6875,0 6.6875,-4.265625 0,-1.53125 -1.04687,-2.21875 -1.04688,-0.6875 -3.39063,-0.6875 h -2.78125 q -4.67187,0 -4.67187,3.671875 z m 1.29687,-14.5625 q 0,1.96875 1.1875,3.0625 1.20313,1.078125 3.20313,1.078125 2.125,0 3.25,-1.078125 1.14062,-1.078125 1.14062,-3.125 0,-2.171875 -1.17187,-3.25 -1.15625,-1.09375 -3.25,-1.09375 -2.03125,0 -3.20313,1.171875 -1.15625,1.15625 -1.15625,3.234375 z"
           stroke-width="1.7"
           stroke-linejoin="miter"
           stroke-miterlimit="2"
           fill="#e362f5"
           stroke="#e362f5"
           transform="matrix(0.927,0,0,0.927,-86.723917,437.53337)" />
      </g>
      <g
         id="title"
         style="font-style:normal;font-weight:normal;font-size:72px;line-height:1;font-family:'Brandmark Sans 11';font-variant-ligatures:normal;text-align:center;text-anchor:middle">
        <path
           id="path132129"
           style="font-style:normal;font-weight:normal;font-size:72px;line-height:1;font-family:'Brandmark Sans 11';font-variant-ligatures:normal;text-align:center;text-anchor:middle"
           d="m 351.72535,-54.266487 c -8.04307,0 -15.21399,3.48856 -20.15612,9.012113 -4.94213,-5.523553 -12.20996,-9.012113 -20.15612,-9.012113 -14.92329,0 -27.03634,12.209959 -27.03634,27.133243 V -0.09690444 H 298.2341 V -27.133244 c 0,-7.364737 5.91117,-13.275908 13.17901,-13.275908 7.26783,0 13.179,5.911171 13.179,13.275908 v 27.03633956 h 13.85733 V -27.133244 c 0,-7.364737 6.00808,-13.275908 13.27591,-13.275908 7.26784,0 13.17901,5.911171 13.17901,13.275908 v 27.03633956 h 13.85733 V -27.133244 c 0,-14.923284 -12.11305,-27.133243 -27.03634,-27.133243 z"
           stroke-width="0"
           stroke-linejoin="miter"
           stroke-miterlimit="2"
           fill="#4051b5"
           stroke="#4051b5"
           transform="matrix(0.96,0,0,0.96,-133.0017,392.55334)" />
        <path
           id="path132131"
           style="font-style:normal;font-weight:normal;font-size:72px;line-height:1;font-family:'Brandmark Sans 11';font-variant-ligatures:normal;text-align:center;text-anchor:middle"
           d="m 416.66912,-54.266487 c -15.214,0 -27.61777,12.403768 -27.61777,27.617766 0,15.213997 12.40377,27.61776541 27.61777,27.61776541 15.214,0 27.52086,-12.40376841 27.52086,-27.61776541 0,-15.213998 -12.30686,-27.617766 -27.52086,-27.617766 z m -13.76043,27.617766 c 0,-7.558547 6.10498,-13.760431 13.76043,-13.760431 7.55855,0 13.76043,6.201884 13.76043,13.760431 0,7.558546 -6.20188,13.76043 -13.76043,13.76043 -7.65545,0 -13.76043,-6.201884 -13.76043,-13.76043 z"
           stroke-width="0"
           stroke-linejoin="miter"
           stroke-miterlimit="2"
           fill="#4051b5"
           stroke="#4051b5"
           transform="matrix(0.96,0,0,0.96,-126.3777,392.55334)" />
        <path
           id="path132133"
           style="font-style:normal;font-weight:normal;font-size:72px;line-height:1;font-family:'Brandmark Sans 11';font-variant-ligatures:normal;text-align:center;text-anchor:middle"
           d="m 454.72683,-30.234186 v 30.13728156 h 13.85733 V -30.234186 c 0,-5.620457 4.55451,-10.174966 10.17497,-10.174966 v -13.857335 c -13.27591,0 -24.0323,10.756393 -24.0323,24.032301 z"
           stroke-width="0"
           stroke-linejoin="miter"
           stroke-miterlimit="2"
           fill="#4051b5"
           stroke="#4051b5"
           transform="matrix(0.96,0,0,0.96,-119.7537,392.55334)" />
        <path
           id="path132135"
           style="font-style:normal;font-weight:normal;font-size:72px;line-height:1;font-family:'Brandmark Sans 11';font-variant-ligatures:normal;text-align:center;text-anchor:middle"
           d="m 501.48095,-26.454913 v -14.148048 h 12.20996 v -12.791386 h -12.20996 v -18.702557 h -13.85734 v 45.641991 c 0,14.535667 11.82234,26.35800856 26.35801,26.35800856 V -13.95424 c -6.97712,0 -12.50067,-5.620457 -12.50067,-12.500673 z"
           stroke-width="0"
           stroke-linejoin="miter"
           stroke-miterlimit="2"
           fill="#4051b5"
           stroke="#4051b5"
           transform="matrix(0.96,0,0,0.96,-113.1297,392.55334)" />
        <path
           id="path132137"
           style="font-style:normal;font-weight:normal;font-size:72px;line-height:1;font-family:'Brandmark Sans 11';font-variant-ligatures:normal;text-align:center;text-anchor:middle"
           d="m 578.77757,-26.358008 v -27.036339 h -13.85734 v 27.036339 c 0,7.267833 -5.91117,13.275908 -13.179,13.275908 -7.26783,0 -13.179,-6.008075 -13.179,-13.275908 v -27.036339 h -13.85734 v 27.036339 c 0,14.923284 12.11306,27.03633909 27.03634,27.03633909 14.92328,0 27.03634,-12.11305509 27.03634,-27.03633909 z"
           stroke-width="0"
           stroke-linejoin="miter"
           stroke-miterlimit="2"
           fill="#4051b5"
           stroke="#4051b5"
           transform="matrix(0.96,0,0,0.96,-106.5057,392.55334)" />
        <path
           id="path132139"
           style="font-style:normal;font-weight:normal;font-size:72px;line-height:1;font-family:'Brandmark Sans 11';font-variant-ligatures:normal;text-align:center;text-anchor:middle"
           d="M 644.29936,-0.09690444 V -26.648721 c 0,-15.213998 -12.30687,-27.617766 -27.52086,-27.617766 -15.214,0 -27.61777,12.403768 -27.61777,27.617766 0,15.213997 12.40377,27.61776541 27.61777,27.61776541 4.94212,0 9.69044,-1.35666218 13.76043,-3.68236881 v 2.61641996 z M 603.01806,-26.648721 c 0,-7.558547 6.10498,-13.760431 13.76044,-13.760431 7.55854,0 13.76043,6.201884 13.76043,13.760431 -0.0969,7.558546 -6.20189,13.76043 -13.76043,13.76043 -7.65546,0 -13.76044,-6.201884 -13.76044,-13.76043 z"
           stroke-width="0"
           stroke-linejoin="miter"
           stroke-miterlimit="2"
           fill="#4051b5"
           stroke="#4051b5"
           transform="matrix(0.96,0,0,0.96,-99.881699,392.55334)" />
        <path
           id="path132141"
           style="font-style:normal;font-weight:normal;font-size:72px;line-height:1;font-family:'Brandmark Sans 11';font-variant-ligatures:normal;text-align:center;text-anchor:middle"
           d="m 656.10183,-30.234186 v 30.13728156 h 13.85733 V -30.234186 c 0,-5.620457 4.55451,-10.174966 10.17497,-10.174966 v -13.857335 c -13.27591,0 -24.0323,10.756393 -24.0323,24.032301 z"
           stroke-width="0"
           stroke-linejoin="miter"
           stroke-miterlimit="2"
           fill="#4051b5"
           stroke="#4051b5"
           transform="matrix(0.96,0,0,0.96,-93.257699,392.55334)" />
        <path
           id="path132143"
           style="font-style:normal;font-weight:normal;font-size:72px;line-height:1;font-family:'Brandmark Sans 11';font-variant-ligatures:normal;text-align:center;text-anchor:middle"
           d="m 712.15877,18.314939 31.10633,-71.709286 h -15.98923 l -12.79139,29.555854 -13.179,-29.555854 h -15.98924 l 21.31898,47.7738894 -10.46568,23.9353966 z"
           stroke-width="0"
           stroke-linejoin="miter"
           stroke-miterlimit="2"
           fill="#4051b5"
           stroke="#4051b5"
           transform="matrix(0.96,0,0,0.96,-86.633699,392.55334)" />
      </g>
      <g
         id="g4625"
         transform="translate(13.26117,11.452124)">
        <path
           style="fill:#cabde6;fill-opacity:1;stroke-width:1.08936"
           d="m 3.5970689,438.74974 -2.68965681,-2.74842 0.31393571,-45.97929 0.3139357,-45.97929 3.167874,-6.59309 c 4.2167754,-8.77611 11.8655105,-16.38967 20.8197615,-20.72402 6.589239,-3.18955 8.21532,-3.51549 17.501812,-3.50817 9.260495,0.007 10.931003,0.34292 17.501813,3.51624 8.953609,4.32409 16.598829,11.93119 20.819762,20.71595 l 3.167874,6.59309 0.313294,45.76554 0.313313,45.76555 -2.686563,2.96216 c -2.039706,2.24896 -3.708058,2.96217 -6.929211,2.96217 -5.884573,0 -8.766444,-2.71765 -9.961455,-9.39378 -0.885262,-4.94566 -3.879294,-9.32647 -6.374112,-9.32647 -2.490278,0 -5.579527,4.29965 -6.136168,8.54039 -0.863057,6.57514 -4.413329,10.17986 -10.026085,10.17986 -5.837779,0 -9.138687,-3.33978 -10.156629,-10.27622 -1.694082,-11.54374 -12.476437,-9.86818 -12.476437,1.93881 0,1.39212 -1.278483,3.83755 -2.841073,5.43426 -3.869581,3.95412 -10.169474,4.02396 -13.9559851,0.15473 z"
           id="path1161-0"
           sodipodi:nodetypes="scccsscsscccssssssssss" />
        <path
           style="fill:#e362f5;fill-opacity:0.996078;stroke-width:1.125"
           d="m -3.0480678,435.84156 -2.8078399,-2.80784 0.32773,-46.97341 0.32773,-46.97341 3.3070699,-6.73564 c 4.4020601,-8.96585 12.3868798,-16.74403 21.7345798,-21.17209 6.87878,-3.25851 8.57631,-3.5915 18.27085,-3.58402 9.667402,0.007 11.41131,0.35033 18.27084,3.59227 9.347028,4.41758 17.328183,12.18915 21.734583,21.16384 l 3.307073,6.73564 0.32706,46.75504 0.327071,46.75504 -2.804602,3.02621 c -2.129333,2.29758 -3.87099,3.02621 -7.233683,3.02621 -6.143141,0 -9.151638,-2.7764 -10.399162,-9.59688 -0.924154,-5.05259 -4.049753,-9.52812 -6.654184,-9.52812 -2.599706,0 -5.824699,4.39262 -6.405795,8.72505 -0.900979,6.7173 -4.607251,10.39995 -10.466631,10.39995 -6.09429,0 -9.54024,-3.41198 -10.60291,-10.4984 -1.76852,-11.79332 -13.02466,-10.08154 -13.02466,1.98073 0,1.42222 -1.33466,3.92052 -2.96591,5.55176 -4.0396096,4.03961 -10.61631972,4.11096 -14.5692098,0.15807 z m 11.7762002,-3.2183 c 0.69662,-0.83937 1.7264996,-3.98797 2.2886296,-6.99687 1.23674,-6.62 4.31782,-9.47699 10.22029,-9.47699 5.90246,0 8.98354,2.85699 10.22028,9.47699 1.25689,6.7278 2.65858,8.52301 6.65472,8.52301 3.99613,0 5.39781,-1.79521 6.65471,-8.52301 1.23674,-6.62 4.317827,-9.47699 10.220286,-9.47699 5.902459,0 8.983541,2.85699 10.220287,9.47699 1.305248,6.98663 2.789449,8.72256 7.095736,8.29921 6.280886,-0.61749 6.402442,-1.58961 6.020921,-48.1512 -0.33525,-40.91346 -0.423461,-42.38274 -2.920737,-48.65249 -3.383685,-8.49517 -11.71656,-17.5086 -20.037307,-21.67378 -5.850236,-2.9285 -7.732024,-3.29104 -17.253896,-3.32411 -9.46562,-0.0329 -11.41937,0.32228 -17.08893,3.10648 -8.15411,4.0043 -16.7969097,13.35952 -20.22434972,21.89141 -2.55534998,6.36102 -2.59733008,7.16328 -2.61067008,49.88364 -0.011,35.16126 0.2800901,43.77289 1.53045008,45.28125 1.86446002,2.24918 7.25509002,2.45049 9.00958012,0.33646 z M 45.216842,397.01655 c -3.19959,-1.28915 -4.85479,-4.50711 -4.85479,-9.43847 v -3.96925 l -10.3934,-0.32346 c -8.85198,-0.2755 -10.44924,-0.61545 -10.76999,-2.29222 -0.34677,-1.81284 1.14458,-1.96875 18.8309,-1.96875 h 19.207486 v 6.09549 c 0,7.72867 -0.653569,9.35294 -4.58046,11.38362 -3.596715,1.85993 -4.023743,1.88938 -7.439746,0.51304 z m 6.170206,-4.71715 c 0.7425,-0.7425 1.35,-3.02063 1.35,-5.0625 0,-3.49285 -0.232954,-3.7125 -3.9375,-3.7125 -3.704546,0 -3.937496,0.21965 -3.937496,3.7125 0,3.73579 1.64359,6.4125 3.937496,6.4125 0.680625,0 1.845,-0.6075 2.5875,-1.35 z M 11.112052,368.5619 c 0,-0.80438 0.6075,-2.07 1.35,-2.8125 1.05,-1.05 1.05,-1.65 0,-2.7 -1.83925,-1.83924 -1.70754,-5.4 0.19974,-5.4 0.85237,0 2.19058,0.77215 2.97381,1.71588 1.27063,1.53101 1.65196,1.50963 3.53933,-0.19842 3.04391,-2.75469 5.54935,-0.24925 2.79465,2.79465 -1.70805,1.88738 -1.72943,2.26871 -0.19842,3.53933 0.94374,0.78324 1.71589,2.12145 1.71589,2.9738 0,1.90728 -3.56076,2.039 -5.4,0.19976 -1.05,-1.05 -1.65,-1.05 -2.7,0 -1.78792,1.78792 -4.275,1.72247 -4.275,-0.1125 z m 41.624996,-0.0873 c 0,-0.85236 0.772144,-2.19057 1.715884,-2.9738 1.531012,-1.27062 1.509626,-1.65196 -0.198417,-3.53933 -1.445298,-1.597 -1.596577,-2.43296 -0.617467,-3.41207 0.97911,-0.97911 1.815075,-0.82784 3.412114,0.61746 1.887367,1.70805 2.268709,1.72943 3.539328,0.19842 0.783237,-0.94373 2.121447,-1.71588 2.973803,-1.71588 1.840916,0 2.064026,3.53573 0.332392,5.26736 -0.873157,0.87316 -0.805668,1.8766 0.238658,3.54884 1.874385,3.00136 0.421268,4.45448 -2.580097,2.58009 -1.672245,-1.04432 -2.675678,-1.11181 -3.548835,-0.23865 -1.731634,1.73163 -5.267363,1.50852 -5.267363,-0.3324 z"
           id="path1161" />
      </g>
    </g>
  </g>
</svg>
